+8_ID_stride4.mot
nRows=5
nColumns=38

name +8_ID_stride4.mot
datacolumns 38
datarows 5
range 1.9650000000 1.9850000000
endheader
time	pelvis_tilt_moment	pelvis_list_moment	pelvis_rotation_moment	pelvis_tx_force	pelvis_ty_force	pelvis_tz_force	hip_flexion_r_moment	hip_adduction_r_moment	hip_rotation_r_moment	knee_angle_r_moment	ankle_angle_r_moment	subtalar_angle_r_moment	mtp_angle_r_moment	hip_flexion_l_moment	hip_adduction_l_moment	hip_rotation_l_moment	knee_angle_l_moment	ankle_angle_l_moment	subtalar_angle_l_moment	mtp_angle_l_moment	lumbar_extension_moment	lumbar_bending_moment	lumbar_rotation_moment	arm_flex_r_moment	arm_add_r_moment	arm_rot_r_moment	elbow_flex_r_moment	pro_sup_r_moment	wrist_flex_r_moment	wrist_dev_r_moment	arm_flex_l_moment	arm_add_l_moment	arm_rot_l_moment	elbow_flex_l_moment	pro_sup_l_moment	wrist_flex_l_moment	wrist_dev_l_moment
        1.9650000000	      -41.5229511248	      -42.9259295347	      -37.5051369699	       43.5481893442	     -139.5889271808	      100.7553579362	     -166.4663547126	      -26.3892655729	       -5.3265468123	      -81.7140632642	       -2.9872639590	       -0.6793870614	       -0.0950558733	      105.7199398804	      -55.1605938149	       13.1603132763	       36.7967042594	        4.2910610744	       -1.2829797014	        0.1477610812	        5.0969123201	        2.0745421568	        0.3304429392	        0.1725342230	       -1.0012670055	       -0.4948770614	       -0.0678287049	       -0.0042018497	       -0.0328643952	       -0.0108342989	       -0.2311430359	        1.4813303563	        0.6743542467	       -0.2594942471	        0.0186953035	        0.0478730129	        0.0200934312	
        1.9700000000	      -28.4416505797	      -61.3131827036	      -33.0442790105	       26.9168763642	       16.2409444643	      164.5640329504	     -158.9463012649	      -16.3482373598	       -4.2751510545	      -80.7521004446	       -2.4944711529	       -0.8442375725	       -0.0218833769	       94.2969792575	      -48.0549355042	       14.5398554052	       36.6473844952	        4.6114154270	       -1.3217059468	        0.1915922847	        6.8948299507	       -7.9060597124	        0.1449039290	       -0.9199300383	       -0.8312968371	       -0.3071709343	        0.0323872925	        0.0008157144	       -0.0141269976	       -0.0002509104	       -1.6423489096	        1.3610583611	        0.8087689247	       -0.3188315052	        0.0182986446	        0.0603529180	        0.0399134727	
        1.9750000000	       -4.1985374656	      -39.8743463964	      -22.9326276522	        5.4658693629	      190.0005927991	      184.5498571359	     -123.3208605794	      -16.5565197389	       -0.6590335732	      -62.5820880680	        4.4480671984	        1.9907722474	        0.0647342599	       82.4440630725	      -39.8882152088	       14.7374694450	       35.5053829865	        4.8584994837	       -1.3448968957	        0.2295174065	       15.2531719786	      -20.4610734823	        0.9915815515	       -2.1298103009	       -0.3168761924	        0.1369880973	        0.3976264914	        0.0076746048	        0.0347104154	       -0.0106080328	       -3.4186851668	        1.0102763443	        0.7611885145	       -0.1202603384	        0.0099491121	        0.0605966391	        0.0276772355	
        1.9800000000	       28.2703184014	        7.0048757773	       -8.5635656318	      -15.8243936320	      338.2022358883	      188.3290777811	      -70.8060205117	      -20.1276230574	        6.6125188071	      -29.3450960059	       11.2470487848	        8.0455320363	        0.1568929192	       72.4303763717	      -31.4796417956	       14.7273828709	       33.2592225371	        5.0440677721	       -1.3527271498	        0.2604103581	       30.4664466915	      -33.3228343661	        2.9954374381	       -3.2263856336	        0.5112143043	        0.7800053724	        1.0491335008	        0.0139714030	        0.1089580630	       -0.0397739336	       -5.2130848331	        0.4706569720	        0.6160047625	        0.3848509624	       -0.0088989484	        0.0591777355	       -0.0082873283	
        1.9850000000	       61.7181829237	       48.9746544036	        6.3417636557	      -30.5659520759	      424.1674530653	      154.8145891066	      -36.2144387511	      -36.6553618301	       18.3736637210	       -4.6156696255	       11.4329277577	       13.8592332787	        0.2449929592	       66.3600464425	      -23.6542940320	       13.7591090650	       30.8204269890	        5.1602380360	       -1.3346697671	        0.2819207882	       47.1576139856	      -43.6341478685	        5.3508156113	       -3.9602887878	        1.4042474096	        1.4380909518	        1.8380950988	        0.0173563255	        0.1876394872	       -0.0864647777	       -6.6212158519	       -0.0646488782	        0.3793999900	        1.0786363121	       -0.0316649340	        0.0518541076	       -0.0681730006	
